<svg aria-hidden="true" style="position: absolute; width: 0; height: 0; overflow: hidden;" version="1.1" xmlns="http://www.w3.org/2000/svg" xmlns:xlink="http://www.w3.org/1999/xlink">
<defs>
<symbol id="icologo" viewBox="0 0 79 32">
<path fill="#fdd000" style="fill: var(--color1, #fdd000)" d="M5.156 4.27h13.625v19.877h-13.625z"></path>
<path fill="#000" style="fill: var(--color2, #000)" d="M8.998 13.294l-1.154-7.065h2.023l0.442 3.276c0.047 0.351 0.085 0.698 0.114 1.039s0.066 0.693 0.114 1.054h0.043c0.047-0.36 0.095-0.716 0.142-1.068 0.047-0.351 0.109-0.693 0.185-1.025l0.442-2.336h1.524l0.455 2.336c0.076 0.351 0.142 0.698 0.199 1.039s0.109 0.693 0.156 1.054h0.057c0.047-0.36 0.083-0.711 0.107-1.054s0.055-0.689 0.092-1.039l0.398-3.276h1.937l-1.082 7.065h-2.463l-0.385-2.293c-0.047-0.303-0.090-0.627-0.128-0.968s-0.081-0.717-0.128-1.125h-0.057c-0.028 0.303-0.062 0.617-0.1 0.94s-0.085 0.708-0.142 1.153l-0.37 2.293h-2.421z"></path>
<path fill="#000" style="fill: var(--color2, #000)" d="M12.473 22.751c-0.551 0-1.065-0.083-1.545-0.249s-0.895-0.407-1.247-0.719c-0.351-0.314-0.627-0.7-0.826-1.16-0.199-0.461-0.299-0.985-0.299-1.574 0-0.578 0.102-1.099 0.306-1.56 0.204-0.46 0.476-0.85 0.819-1.167s0.734-0.561 1.176-0.727c0.442-0.166 0.9-0.249 1.374-0.249 0.542 0 1.020 0.085 1.439 0.257 0.418 0.171 0.767 0.408 1.048 0.712 0.28 0.303 0.492 0.661 0.633 1.075 0.142 0.414 0.213 0.862 0.213 1.345 0 0.19-0.012 0.373-0.036 0.549s-0.045 0.306-0.064 0.391h-4.814c0.104 0.513 0.338 0.889 0.698 1.126s0.831 0.356 1.41 0.356c0.322 0 0.629-0.043 0.919-0.128s0.591-0.209 0.904-0.37l0.698 1.268c-0.409 0.256-0.859 0.457-1.353 0.604-0.493 0.146-0.978 0.219-1.452 0.219zM12.301 16.94c-0.418 0-0.767 0.109-1.047 0.327-0.281 0.218-0.473 0.551-0.577 0.997h3.020c-0.104-0.882-0.569-1.324-1.396-1.324z"></path>
<path fill="#000" style="fill: var(--color2, #000)" d="M20.639 23.711v-19.441h5.989c0.898 0 1.742 0.101 2.529 0.299 0.786 0.199 1.477 0.532 2.074 1 0.596 0.467 1.067 1.088 1.413 1.863 0.346 0.774 0.519 1.739 0.519 2.891 0 1.432-0.277 2.61-0.831 3.534-0.552 0.923-1.28 1.615-2.177 2.072l3.81 7.782h-4.277l-3.24-7.007h-1.997v7.007h-3.812zM24.45 13.216h1.867c2.057 0 3.086-0.964 3.086-2.892 0-0.954-0.26-1.62-0.777-1.997-0.519-0.377-1.288-0.567-2.309-0.567h-1.867v5.455z"></path>
<path fill="#000" style="fill: var(--color2, #000)" d="M40.018 15.426c0.482 0.303 0.833 0.718 1.052 1.241v-4.447h2.687v11.628h-2.687v-1.587c-0.22 0.524-0.571 0.937-1.052 1.241-0.482 0.303-1.058 0.455-1.728 0.455-0.723 0-1.37-0.18-1.94-0.542-0.571-0.361-1.022-0.882-1.351-1.563-0.329-0.68-0.495-1.477-0.495-2.388 0-0.922 0.165-1.721 0.495-2.396s0.78-1.193 1.351-1.555c0.571-0.361 1.218-0.542 1.94-0.542 0.67 0 1.247 0.152 1.728 0.455zM37.764 17.894c-0.351 0.377-0.526 0.901-0.526 1.572s0.175 1.195 0.526 1.572c0.351 0.377 0.814 0.565 1.39 0.565 0.565 0 1.030-0.193 1.39-0.582 0.361-0.388 0.542-0.905 0.542-1.555 0-0.66-0.18-1.182-0.542-1.563-0.361-0.383-0.825-0.574-1.39-0.574-0.576-0.001-1.039 0.188-1.39 0.565z"></path>
<path fill="#000" style="fill: var(--color2, #000)" d="M53.743 19.953h-6.081c0.032 0.66 0.199 1.134 0.503 1.422s0.691 0.433 1.163 0.433c0.398 0 0.728-0.1 0.99-0.299s0.435-0.455 0.519-0.77h2.844c-0.115 0.617-0.366 1.171-0.754 1.658s-0.879 0.87-1.477 1.147c-0.597 0.277-1.262 0.416-1.996 0.416-0.859 0-1.621-0.18-2.286-0.542s-1.186-0.882-1.563-1.563c-0.377-0.68-0.565-1.477-0.565-2.388 0-0.922 0.186-1.721 0.558-2.396s0.892-1.193 1.563-1.555c0.671-0.361 1.435-0.542 2.295-0.542 0.87 0 1.634 0.178 2.295 0.535s1.171 0.857 1.532 1.5c0.361 0.644 0.542 1.385 0.542 2.223-0.002 0.217-0.028 0.459-0.081 0.721zM50.639 17.524c-0.32-0.288-0.715-0.433-1.186-0.433-0.493 0-0.901 0.147-1.225 0.441-0.325 0.293-0.508 0.723-0.55 1.288h3.425c0.011-0.576-0.143-1.009-0.463-1.297z"></path>
<path fill="#000" style="fill: var(--color2, #000)" d="M59.038 21.225l1.901-6.144h2.86l-3.111 8.768h-3.332l-3.111-8.768h2.86l1.933 6.144z"></path>
<path fill="#000" style="fill: var(--color2, #000)" d="M70.412 15.804c0.665 0.556 1.081 1.288 1.249 2.2h-2.514c-0.073-0.357-0.238-0.636-0.495-0.841-0.257-0.204-0.578-0.306-0.966-0.306-0.303 0-0.535 0.065-0.691 0.196-0.158 0.132-0.236 0.318-0.236 0.558 0 0.273 0.143 0.476 0.433 0.613 0.288 0.136 0.741 0.273 1.359 0.409 0.671 0.158 1.22 0.318 1.65 0.48 0.429 0.162 0.801 0.427 1.115 0.793 0.314 0.367 0.472 0.859 0.472 1.477 0 0.503-0.136 0.948-0.409 1.336s-0.665 0.691-1.178 0.911c-0.513 0.22-1.121 0.329-1.823 0.329-1.184 0-2.132-0.262-2.844-0.786s-1.147-1.273-1.304-2.247h2.593c0.041 0.377 0.201 0.665 0.479 0.864s0.636 0.299 1.076 0.299c0.303 0 0.535-0.071 0.691-0.212 0.158-0.141 0.236-0.327 0.236-0.558 0-0.303-0.145-0.52-0.433-0.652-0.288-0.13-0.757-0.269-1.406-0.416-0.649-0.136-1.184-0.282-1.602-0.44s-0.781-0.411-1.084-0.762c-0.303-0.351-0.455-0.83-0.455-1.438 0-0.786 0.299-1.422 0.896-1.909s1.44-0.73 2.53-0.73c1.107 0 1.995 0.277 2.661 0.833z"></path>
</symbol>
</defs>
</svg>
